<svg width="50" height="50" viewBox="0 0 50 50" fill="none" xmlns="http://www.w3.org/2000/svg">
<path fill-rule="evenodd" clip-rule="evenodd" d="M47.5 2.5H2.5V47.5H47.5V2.5ZM0 0V50H50V0H0Z" fill="black"/>
<path d="M28 14.9409H23V6H28V7.23534H24.4493V9.66321H27.7766V10.8924H24.4493V13.6995H28V14.9409Z" fill="black"/>
<path d="M28 29.9705H23V21.0295H28V22.2649H24.4493V24.6928H27.7766V25.922H24.4493V28.729H28V29.9705Z" fill="black"/>
<path d="M28 45H23V36.0591H28V37.2944H24.4493V39.7223H27.7766V40.9515H24.4493V43.7585H28V45Z" fill="black"/>
<path d="M42.8245 14.9409H40.9749L36.4859 7.80408H36.4295C36.4462 8.04463 36.4608 8.29944 36.4734 8.56853C36.4901 8.83761 36.5026 9.11485 36.511 9.40024C36.5235 9.68563 36.534 9.9751 36.5423 10.2686V14.9409H35.1755V6H37.0125L41.4953 13.0879H41.5392C41.5308 12.88 41.5204 12.6415 41.5078 12.3724C41.4953 12.1033 41.4828 11.8261 41.4702 11.5407C41.4619 11.2512 41.4556 10.9719 41.4514 10.7028V6H42.8245V14.9409Z" fill="black"/>
<path d="M35.9718 21.0295H38.6991C39.8819 21.0295 40.7743 21.1967 41.3762 21.531C41.9781 21.8653 42.279 22.4422 42.279 23.2617C42.279 23.6042 42.2163 23.914 42.0909 24.1913C41.9697 24.4644 41.7921 24.6907 41.558 24.8701C41.3239 25.0454 41.0355 25.1636 40.6928 25.2248V25.286C41.0481 25.3471 41.3636 25.4552 41.6395 25.6101C41.9195 25.765 42.139 25.9872 42.2978 26.2767C42.4608 26.5661 42.5423 26.9412 42.5423 27.4019C42.5423 27.9483 42.4086 28.413 42.1411 28.7963C41.8777 29.1795 41.4995 29.471 41.0063 29.6708C40.5172 29.8706 39.9363 29.9705 39.2633 29.9705H35.9718V21.0295ZM37.4765 24.7172H38.9185C39.5998 24.7172 40.0721 24.6092 40.3354 24.3931C40.5987 24.177 40.7304 23.861 40.7304 23.4452C40.7304 23.0212 40.5737 22.7154 40.2602 22.5279C39.9509 22.3403 39.4577 22.2465 38.7806 22.2465H37.4765V24.7172ZM37.4765 25.9036V28.7412H39.0627C39.7649 28.7412 40.2581 28.6087 40.5423 28.3437C40.8265 28.0787 40.9687 27.7199 40.9687 27.2674C40.9687 26.9902 40.9039 26.7496 40.7743 26.5458C40.6489 26.3419 40.442 26.1849 40.1536 26.0749C39.8652 25.9607 39.4765 25.9036 38.9875 25.9036H37.4765Z" fill="black"/>
<path d="M43 36.0591L39.7962 45H38.2038L35 36.0591H36.5423L38.4734 41.6609C38.5319 41.824 38.5946 42.0217 38.6614 42.2541C38.7325 42.4865 38.7973 42.7209 38.8558 42.9574C38.9185 43.1939 38.9666 43.4038 39 43.5873C39.0334 43.4038 39.0794 43.1939 39.1379 42.9574C39.2006 42.7209 39.2654 42.4865 39.3323 42.2541C39.3992 42.0217 39.4619 41.822 39.5204 41.6548L41.4577 36.0591H43Z" fill="black"/>
<path d="M15.1112 14.9409H13.3736L10.5089 10.8802L9.60231 11.5957V14.9409H8.09129V6H9.60231V10.2748C9.78699 10.0546 9.97377 9.83444 10.1626 9.61428C10.3515 9.39412 10.5404 9.17396 10.7293 8.9538L13.3232 6H15.0294L11.5918 9.91394L15.1112 14.9409Z" fill="black"/>
<path d="M17 21.0295L14.595 29.9705H12.9454L11.4092 24.6132C11.3715 24.4828 11.3295 24.3279 11.2833 24.1485C11.2371 23.9691 11.191 23.7856 11.1448 23.5981C11.1028 23.4105 11.0651 23.2393 11.0315 23.0844C11.0021 22.9254 10.9811 22.803 10.9685 22.7174C10.9601 22.803 10.9412 22.9233 10.9119 23.0782C10.8825 23.2332 10.8468 23.4044 10.8048 23.592C10.7671 23.7754 10.7251 23.9589 10.6789 24.1424C10.6327 24.3217 10.5908 24.4807 10.553 24.6194L9.04197 29.9705H7.39874L5 21.0295H6.51731L7.84575 26.2706C7.88772 26.4377 7.9297 26.6191 7.97167 26.8148C8.01784 27.0065 8.05981 27.2001 8.09759 27.3958C8.13956 27.5915 8.17733 27.7831 8.21091 27.9707C8.24449 28.1541 8.27177 28.3213 8.29276 28.4722C8.31375 28.3172 8.34103 28.146 8.37461 27.9584C8.40818 27.7668 8.44386 27.5732 8.48164 27.3775C8.52361 27.1777 8.56558 26.9861 8.60756 26.8026C8.65373 26.6191 8.6999 26.454 8.74607 26.3073L10.2445 21.0295H11.7177L13.2476 26.3256C13.2938 26.4764 13.3379 26.6456 13.3799 26.8332C13.426 27.0207 13.4701 27.2124 13.5121 27.408C13.554 27.6037 13.5918 27.7933 13.6254 27.9768C13.659 28.1603 13.6863 28.3254 13.7072 28.4722C13.7366 28.2724 13.7744 28.0441 13.8206 27.7872C13.8667 27.5304 13.9192 27.2694 13.978 27.0044C14.0367 26.7394 14.0955 26.4948 14.1543 26.2706L15.4764 21.0295H17Z" fill="black"/>
<path d="M14.9538 40.4439C14.9538 41.451 14.7608 42.2929 14.3746 42.9696C13.9885 43.6424 13.4281 44.1499 12.6936 44.4924C11.9591 44.8308 11.0735 45 10.0367 45H7.48059V36.0591H10.3137C11.2665 36.0591 12.0892 36.2262 12.7817 36.5606C13.4743 36.8908 14.0094 37.3821 14.3872 38.0344C14.765 38.6827 14.9538 39.4858 14.9538 40.4439ZM13.3799 40.4867C13.3799 39.7529 13.2602 39.1495 13.021 38.6765C12.7859 38.2036 12.4376 37.853 11.9759 37.6247C11.5184 37.3923 10.9538 37.2761 10.2823 37.2761H8.99161V43.7708H10.0619C11.1742 43.7708 12.0052 43.4956 12.5551 42.9452C13.1049 42.3948 13.3799 41.5753 13.3799 40.4867Z" fill="black"/>
</svg>
