<svg width="50" height="50" viewBox="0 0 50 50" fill="none" xmlns="http://www.w3.org/2000/svg">
<path fill-rule="evenodd" clip-rule="evenodd" d="M47.5 2.5H2.5V47.5H47.5V2.5ZM0 0V50H50V0H0Z" fill="white"/>
<path d="M27.7343 14.8989H22.6806V5.97559H27.7343V7.2085H24.1454V9.63159H27.5085V10.8584H24.1454V13.6599H27.7343V14.8989Z" fill="white"/>
<path d="M27.7343 29.8989H22.6806V20.9756H27.7343V22.2085H24.1454V24.6316H27.5085V25.8584H24.1454V28.6599H27.7343V29.8989Z" fill="white"/>
<path d="M27.7343 44.8989H22.6806V35.9756H27.7343V37.2085H24.1454V39.6316H27.5085V40.8584H24.1454V43.6599H27.7343V44.8989Z" fill="white"/>
<path d="M43.0771 14.8989H41.2766L36.9065 7.77612H36.8516C36.8678 8.01619 36.8821 8.27051 36.8943 8.53906C36.9106 8.80762 36.9228 9.08431 36.9309 9.36914C36.9431 9.65397 36.9533 9.94287 36.9614 10.2358V14.8989H35.6309V5.97559H37.4192L41.7832 13.0496H41.8259C41.8178 12.842 41.8076 12.604 41.7954 12.3354C41.7832 12.0669 41.771 11.7902 41.7588 11.5054C41.7507 11.2165 41.7445 10.9377 41.7405 10.6692V5.97559H43.0771V14.8989Z" fill="white"/>
<path d="M36.406 20.9756H39.061C40.2126 20.9756 41.0813 21.1424 41.6672 21.4761C42.2532 21.8097 42.5461 22.3855 42.5461 23.2034C42.5461 23.5452 42.4851 23.8544 42.363 24.1311C42.245 24.4037 42.0721 24.6296 41.8442 24.8086C41.6164 24.9836 41.3356 25.1016 41.002 25.1626V25.2236C41.3478 25.2847 41.655 25.3925 41.9236 25.5471C42.1962 25.7017 42.4098 25.9235 42.5645 26.2124C42.7231 26.5013 42.8025 26.8757 42.8025 27.3354C42.8025 27.8807 42.6723 28.3446 42.4119 28.7271C42.1555 29.1095 41.7873 29.4005 41.3071 29.5999C40.8311 29.7992 40.2655 29.8989 39.6104 29.8989H36.406V20.9756ZM37.8708 24.656H39.2747C39.9379 24.656 40.3977 24.5482 40.6541 24.3325C40.9104 24.1169 41.0386 23.8015 41.0386 23.3865C41.0386 22.9633 40.886 22.6581 40.5808 22.4709C40.2797 22.2838 39.7996 22.1902 39.1404 22.1902H37.8708V24.656ZM37.8708 25.8401V28.6721H39.415C40.0986 28.6721 40.5788 28.5399 40.8555 28.2754C41.1322 28.0109 41.2705 27.6528 41.2705 27.2012C41.2705 26.9245 41.2074 26.6844 41.0813 26.481C40.9592 26.2775 40.7578 26.1208 40.4771 26.011C40.1963 25.8971 39.8179 25.8401 39.3418 25.8401H37.8708Z" fill="white"/>
<path d="M43.248 35.9756L40.1292 44.8989H38.5789L35.46 35.9756H36.9614L38.8413 41.5664C38.8983 41.7292 38.9593 41.9265 39.0244 42.1584C39.0936 42.3904 39.1567 42.6243 39.2136 42.8604C39.2747 43.0964 39.3215 43.3059 39.354 43.489C39.3866 43.3059 39.4313 43.0964 39.4883 42.8604C39.5493 42.6243 39.6124 42.3904 39.6775 42.1584C39.7426 41.9265 39.8036 41.7271 39.8606 41.5603L41.7466 35.9756H43.248Z" fill="white"/>
<path d="M14.6315 14.8989H12.9469L10.1698 10.8462L9.29089 11.5603V14.8989H7.82605V5.97559H9.29089V10.2419C9.46993 10.0222 9.651 9.80249 9.83411 9.58276C10.0172 9.36304 10.2003 9.14331 10.3834 8.92358L12.8981 5.97559H14.5521L11.2196 9.88184L14.6315 14.8989Z" fill="white"/>
<path d="M16.4625 20.9756L14.131 29.8989H12.5319L11.0426 24.5522C11.006 24.422 10.9653 24.2674 10.9205 24.0884C10.8758 23.9093 10.831 23.7262 10.7863 23.5391C10.7456 23.3519 10.7089 23.181 10.6764 23.0264C10.6479 22.8677 10.6276 22.7456 10.6154 22.6602C10.6072 22.7456 10.5889 22.8656 10.5604 23.0203C10.5319 23.1749 10.4974 23.3458 10.4567 23.533C10.42 23.7161 10.3794 23.8992 10.3346 24.0823C10.2898 24.2613 10.2491 24.42 10.2125 24.5583L8.74768 29.8989H7.15466L4.82922 20.9756H6.30017L7.58801 26.2063C7.6287 26.3731 7.66939 26.5542 7.71008 26.7495C7.75484 26.9408 7.79553 27.134 7.83215 27.3293C7.87284 27.5247 7.90946 27.7159 7.94202 27.9031C7.97457 28.0862 8.00102 28.253 8.02136 28.4036C8.04171 28.2489 8.06816 28.078 8.10071 27.8909C8.13326 27.6996 8.16785 27.5063 8.20447 27.311C8.24516 27.1117 8.28585 26.9204 8.32654 26.7373C8.3713 26.5542 8.41606 26.3894 8.46082 26.2429L9.91345 20.9756H11.3417L12.8248 26.2612C12.8696 26.4118 12.9123 26.5806 12.953 26.7678C12.9978 26.955 13.0405 27.1462 13.0812 27.3416C13.1219 27.5369 13.1585 27.7261 13.191 27.9092C13.2236 28.0923 13.25 28.2571 13.2704 28.4036C13.2989 28.2042 13.3355 27.9763 13.3802 27.72C13.425 27.4636 13.4759 27.2032 13.5328 26.9387C13.5898 26.6742 13.6468 26.4301 13.7037 26.2063L14.9855 20.9756H16.4625Z" fill="white"/>
<path d="M14.4789 40.3518C14.4789 41.3569 14.2917 42.1971 13.9174 42.8726C13.543 43.5439 12.9998 44.0505 12.2877 44.3923C11.5756 44.7301 10.7171 44.8989 9.71204 44.8989H7.23401V35.9756H9.98059C10.9043 35.9756 11.7018 36.1424 12.3732 36.4761C13.0446 36.8057 13.5634 37.296 13.9296 37.947C14.2958 38.594 14.4789 39.3956 14.4789 40.3518ZM12.953 40.3945C12.953 39.6621 12.837 39.0599 12.6051 38.5879C12.3772 38.1159 12.0395 37.766 11.5919 37.5381C11.1484 37.3062 10.6011 37.1902 9.95007 37.1902H8.69885V43.6721H9.73645C10.8147 43.6721 11.6204 43.3975 12.1534 42.8481C12.6865 42.2988 12.953 41.481 12.953 40.3945Z" fill="white"/>
</svg>
